<?xml version="1.0" standalone="no"?>
<!DOCTYPE svg PUBLIC "-//W3C//DTD SVG 20010904//EN"
 "http://www.w3.org/TR/2001/REC-SVG-20010904/DTD/svg10.dtd">
<svg version="1.0" xmlns="http://www.w3.org/2000/svg"
 width="500.000000pt" height="128.000000pt" viewBox="0 0 500.000000 128.000000"
 preserveAspectRatio="xMidYMid meet">

<g transform="translate(0.000000,128.000000) scale(0.100000,-0.100000)"
fill="#000000" stroke="none">
<path d="M357 1250 c-103 -18 -195 -90 -240 -188 -21 -46 -22 -59 -22 -422 l0
-375 28 -56 c32 -66 99 -132 165 -162 45 -21 59 -22 412 -22 431 0 438 1 531
94 89 89 89 90 89 525 l0 371 -29 60 c-35 74 -78 115 -156 152 l-60 28 -335 2
c-184 1 -356 -2 -383 -7z m511 -349 c152 -22 83 -121 -118 -171 l-87 -22 -6
-119 c-4 -98 -9 -128 -29 -167 -40 -81 -88 -61 -130 54 -26 72 -37 243 -19
297 35 106 188 157 389 128z m-23 -256 c65 -64 -3 -168 -88 -136 -36 14 -61
70 -48 105 22 57 94 74 136 31z"/>
<path d="M1970 1013 c-34 -13 -60 -47 -60 -80 0 -99 150 -116 183 -21 21 59
-59 124 -123 101z"/>
<path d="M1725 985 c-67 -24 -115 -96 -115 -172 0 -19 -6 -23 -30 -23 l-30 0
0 -65 0 -65 30 0 30 0 0 -195 0 -195 80 0 80 0 0 195 0 195 45 0 45 0 0 65 0
65 -45 0 c-34 0 -45 4 -45 16 0 29 20 52 50 59 30 6 30 8 30 71 l0 64 -42 0
c-24 -1 -61 -7 -83 -15z"/>
<path d="M2895 985 c-67 -24 -115 -96 -115 -172 0 -19 -6 -23 -30 -23 l-30 0
0 -65 0 -65 30 0 30 0 0 -195 0 -195 80 0 80 0 0 195 0 195 45 0 45 0 0 65 0
65 -45 0 c-34 0 -45 4 -45 16 0 29 20 52 50 59 30 6 30 8 30 71 l0 64 -42 0
c-24 -1 -61 -7 -83 -15z"/>
<path d="M3247 786 c-72 -20 -127 -63 -159 -125 -24 -45 -28 -65 -28 -130 1
-119 40 -190 132 -237 138 -70 310 -19 373 111 54 110 26 265 -59 330 -72 55
-174 75 -259 51z m149 -160 c31 -31 34 -39 34 -96 0 -57 -3 -65 -34 -96 -47
-47 -95 -47 -142 0 -31 31 -34 39 -34 96 0 57 3 65 34 96 47 47 95 47 142 0z"/>
<path d="M3945 795 c-5 -2 -22 -6 -38 -9 -15 -4 -45 -23 -67 -42 l-40 -36 0
41 0 41 -80 0 -80 0 0 -260 0 -260 80 0 80 0 0 134 c0 188 11 211 111 223 l49
6 0 83 c0 46 -1 84 -2 83 -2 0 -7 -2 -13 -4z"/>
<path d="M4296 789 c-22 -5 -55 -21 -73 -35 l-33 -25 0 30 0 31 -80 0 -80 0 0
-260 0 -260 80 0 80 0 0 155 c0 174 8 203 59 225 42 17 95 5 121 -27 18 -23
20 -40 20 -189 l0 -164 80 0 80 0 0 155 c0 174 8 203 59 225 42 17 95 5 121
-27 18 -23 20 -40 20 -189 l0 -164 80 0 80 0 0 173 c0 94 -5 189 -11 210 -14
50 -71 113 -116 128 -62 20 -138 14 -188 -15 -24 -15 -51 -36 -59 -47 l-14
-21 -17 26 c-33 50 -136 82 -209 65z"/>
<path d="M1920 530 l0 -260 80 0 80 0 0 260 0 260 -80 0 -80 0 0 -260z"/>
<path d="M2156 763 c9 -16 48 -72 86 -126 37 -54 68 -100 68 -102 0 -2 -38
-63 -85 -135 l-85 -130 90 0 c76 0 90 3 94 18 4 9 21 41 40 71 l33 53 49 -71
49 -70 89 -1 88 0 -18 28 c-9 15 -48 71 -86 126 -38 54 -67 104 -64 112 3 7
41 68 86 134 l81 121 -88 -3 -87 -3 -36 -62 c-19 -34 -38 -65 -42 -68 -3 -4
-28 25 -55 64 l-48 71 -89 0 -88 0 18 -27z"/>
</g>
</svg>
